<svg xmlns="http://www.w3.org/2000/svg" width="128" height="128" fill="none"><g fill="#000" fill-opacity=".5" clip-path="url(#a)"><g clip-path="url(#b)"><path d="M41.667 0v42.667h2V0h-2Z" mask="url(#path-5-inside-3_1641_2)"/><path d="M86.333 42.667V0h-2v42.667h2Z" mask="url(#path-7-inside-4_1641_2)"/></g><path d="M128 41.667H0v2h128v-2Z" mask="url(#path-3-inside-2_1641_2)"/><g clip-path="url(#c)"><path d="M41.667 42.667v42.666h2V42.667h-2Z" mask="url(#path-9-inside-5_1641_2)"/><path d="M86.333 85.333V42.667h-2v42.666h2Z" mask="url(#path-11-inside-6_1641_2)"/></g><g clip-path="url(#d)"><path d="M41.667 85.333V128h2V85.333h-2Z" mask="url(#path-15-inside-8_1641_2)"/><path d="M86.333 128V85.333h-2V128h2Z" mask="url(#path-17-inside-9_1641_2)"/></g><path d="M0 86.333h128v-2H0v2Z" mask="url(#path-13-inside-7_1641_2)"/></g><path fill="#000" fill-opacity=".5" d="M128 128v1h1v-1h-1ZM127 0v128h2V0h-2Zm1 127H0v2h128v-2Z" mask="url(#path-1-inside-1_1641_2)"/><defs><clipPath id="a"><path fill="#000" d="M0 0h128v128H0V0Z"/></clipPath><clipPath id="b"><path fill="#000" d="M0 0h128v42.667H0V0Z"/></clipPath><clipPath id="c"><path fill="#000" d="M0 42.667h128v42.667H0z"/></clipPath><clipPath id="d"><path fill="#000" d="M0 85.333h128V128H0V85.333Z"/></clipPath></defs></svg>